<svg xmlns="http://www.w3.org/2000/svg" width="28.6" height="34.877" viewBox="0 0 28.6 34.877">
  <g id="_001-notification" data-name="001-notification" transform="translate(-0.499 -6.848)">
    <path id="Path_777" data-name="Path 777" d="M145.913,396.611a4.361,4.361,0,1,0-4.361,4.354A4.357,4.357,0,0,0,145.913,396.611Zm0,0" transform="translate(-126.753 -359.241)" fill="#f7c92b"/>
    <path id="Path_778" data-name="Path 778" d="M181,392.258a4.363,4.363,0,0,0-1.267.187,4.352,4.352,0,0,1,0,8.332,4.355,4.355,0,1,0,1.267-8.52Zm0,0" transform="translate(-166.198 -359.241)" fill="#f2b51d"/>
    <path id="Path_779" data-name="Path 779" d="M164.681,37.482a2.582,2.582,0,1,1,2.026-3.04A2.586,2.586,0,0,1,164.681,37.482Zm0,0" transform="translate(-149.372 -25.52)" fill="#f7c92b"/>
    <path id="Path_780" data-name="Path 780" d="M188.383,34.442a2.586,2.586,0,0,0-3.045-2.023,2.643,2.643,0,0,0-.377.106,2.581,2.581,0,0,1,0,4.852,2.586,2.586,0,0,0,3.422-2.934Zm0,0" transform="translate(-171.048 -25.52)" fill="#f2b51d"/>
    <path id="Path_781" data-name="Path 781" d="M25.6,115.868H4a3.505,3.505,0,0,1-2.183-6.244l.694-.559a6.8,6.8,0,0,0,2.538-5.3v-3.672a9.825,9.825,0,0,1,19.65,0v3.74a6.8,6.8,0,0,0,2.452,5.229l.676.562a3.53,3.53,0,0,1,1.273,2.713v.035a3.5,3.5,0,0,1-3.5,3.494Zm0,0" transform="translate(0 -79.226)" fill="#f7e249"/>
    <path id="Path_782" data-name="Path 782" d="M175.835,109.623l-.676-.562a6.8,6.8,0,0,1-2.452-5.23v-3.74a9.832,9.832,0,0,0-12.593-9.413,9.815,9.815,0,0,1,7.057,9.413v3.74a6.8,6.8,0,0,0,2.452,5.23l.676.562a3.531,3.531,0,0,1,1.273,2.713v.035a3.5,3.5,0,0,1-3.5,3.494h5.537a3.5,3.5,0,0,0,3.5-3.494v-.035a3.53,3.53,0,0,0-1.273-2.713Zm0,0" transform="translate(-148.008 -79.223)" fill="#f7c92b"/>
  </g>
</svg>
